<?xml version="1.0" encoding="iso-8859-1"?>
<!-- Generator: Adobe Illustrator 19.0.0, SVG Export Plug-In . SVG Version: 6.00 Build 0)  -->
<svg version="1.1" id="Layer_1" xmlns="http://www.w3.org/2000/svg" xmlns:xlink="http://www.w3.org/1999/xlink" x="0px" y="0px"
	 viewBox="0 0 512 512" style="enable-background:new 0 0 512 512;" xml:space="preserve">
<path style="fill:#FFD782;" d="M472.68,102.247c-0.189-7.545-6.078-13.572-13.558-14.584c-0.03-0.004-0.06-0.008-0.088-0.012
	c-29.945-4.285-52.964-30.038-52.964-61.167v-0.143c0.01-8.15-5.858-15.087-13.912-16.331C357.287,4.625,311.323,0,256.001,0
	S154.714,4.625,119.844,10.008c-8.054,1.244-13.923,8.181-13.912,16.331v0.143c0,31.129-23.019,56.883-52.966,61.167
	c-0.029,0.004-0.058,0.008-0.088,0.012c-7.48,1.012-13.368,7.038-13.558,14.584C30.044,473.012,256.001,512,256.001,512
	S481.957,473.012,472.68,102.247z"/>
<path style="fill:#C7CFE2;" d="M256.001,17.655c46.048,0,90.592,3.243,132.418,9.641c0.394,38.37,28.716,71.349,66.665,77.604
	c3.242,144.414-30.692,257.514-98.191,327.182c-43.81,45.218-89.063,58.894-100.914,61.843
	c-25.763-6.365-206.388-62.873-199.06-389.02c37.79-6.129,66.188-39.079,66.664-77.609
	C165.407,20.898,209.953,17.655,256.001,17.655"/>
<path style="fill:#AEB5CA;" d="M256.001,35.31c40.181,0,79.172,2.514,116.125,7.481c5.999,35.471,31.238,64.759,65.501,75.967
	c0.818,133.1-31.373,237.004-93.415,301.038c-36.459,37.63-74.253,51.652-88.246,55.823c-15.363-4.569-58.521-20.839-98.489-67.738
	c-56.017-65.731-83.951-162.937-83.105-289.091c34.212-11.147,59.449-40.441,65.485-75.997
	C176.815,37.826,215.816,35.31,256.001,35.31 M256.001,17.655c-46.048,0-90.593,3.243-132.419,9.641
	c-0.474,38.53-28.874,71.48-66.664,77.609c-7.327,326.146,173.298,382.656,199.06,389.02c11.851-2.948,57.103-16.626,100.914-61.843
	c67.499-69.668,101.434-182.769,98.191-327.182c-37.949-6.255-66.271-39.234-66.665-77.604
	C346.593,20.898,302.048,17.655,256.001,17.655L256.001,17.655z"/>
<path style="fill:#FFD782;" d="M256.001,88.276c26.163,0,51.807,1.131,76.597,3.372c11.558,24.072,29.351,44.595,51.563,59.462
	c-3.962,103.273-30.691,183.015-77.988,231.832c-18.477,19.07-37.142,30.05-50.165,36.062c-14.78-6.9-36.832-20.381-58.219-45.475
	c-42.912-50.354-66.403-125.055-69.987-222.348c22.215-14.863,40.022-35.416,51.586-59.53
	C204.186,89.407,229.836,88.276,256.001,88.276"/>
<path style="fill:#FFC36E;" d="M198.759,90.354c-6.461,0.428-13.015,0.721-19.371,1.295c-11.564,24.115-29.372,44.666-51.586,59.53
	c3.585,97.293,27.076,171.994,69.987,222.348c21.386,25.095,43.439,38.575,58.219,45.475
	C230.469,389.512,163.95,265.354,198.759,90.354z"/>
<path style="fill:#AEB5CA;" d="M256.001,88.276c26.163,0,51.807,1.131,76.597,3.372c11.558,24.072,29.351,44.595,51.563,59.462
	c-3.962,103.273-30.691,183.015-77.988,231.832c-18.477,19.07-37.142,30.05-50.165,36.062c-14.78-6.9-36.832-20.381-58.219-45.475
	c-42.912-50.354-66.403-125.055-69.987-222.348c22.215-14.863,40.022-35.416,51.586-59.53
	C204.186,89.407,229.836,88.276,256.001,88.276 M256.001,70.621c-26.607,0-52.919,1.16-78.202,3.446l-9.992,0.904l-4.338,9.046
	c-10.19,21.248-25.919,39.399-45.485,52.491l-8.188,5.479l0.363,9.845c3.733,101.318,28.695,179.761,74.194,233.15
	c23.459,27.528,47.854,42.396,64.188,50.022l7.426,3.467l7.442-3.434c13.928-6.429,34.852-18.552,55.446-39.806
	c50.142-51.754,78.826-135.935,82.951-243.442l0.378-9.86l-8.201-5.489c-19.564-13.096-35.287-31.225-45.469-52.434l-4.34-9.039
	l-9.986-0.903C308.909,71.779,282.604,70.621,256.001,70.621L256.001,70.621z"/>
<g>
	<circle style="fill:#FFD782;" cx="256.001" cy="52.966" r="8.828"/>
	<circle style="fill:#FFD782;" cx="93.783" cy="132.414" r="8.828"/>
	<circle style="fill:#FFD782;" cx="418.218" cy="132.414" r="8.828"/>
	<circle style="fill:#FFD782;" cx="121.17" cy="308.966" r="8.828"/>
	<circle style="fill:#FFD782;" cx="390.831" cy="308.966" r="8.828"/>
	<circle style="fill:#FFD782;" cx="256.001" cy="455.724" r="8.828"/>
</g>
<circle style="fill:#FFE3A8;" cx="312.232" cy="197.473" r="32.044"/>
<circle style="fill:#FFF3D9;" cx="271.14" cy="136.364" r="20.028"/>
<g>
</g>
<g>
</g>
<g>
</g>
<g>
</g>
<g>
</g>
<g>
</g>
<g>
</g>
<g>
</g>
<g>
</g>
<g>
</g>
<g>
</g>
<g>
</g>
<g>
</g>
<g>
</g>
<g>
</g>
</svg>
